{
	"asset":{
		"generator":"Khronos glTF Blender I/O v4.1.63",
		"version":"2.0"
	},
	"scene":0,
	"scenes":[
		{
			"name":"Scene",
			"nodes":[
				0,
				1,
				2,
				3,
				4,
				5,
				6,
				7,
				8,
				9,
				10
			]
		}
	],
	"nodes":[
		{
			"mesh":0,
			"name":"head",
			"rotation":[
				0,
				0,
				-0.07804462313652039,
				0.9969499707221985
			],
			"translation":[
				-0.0036003291606903076,
				1.7763440608978271,
				0
			]
		},
		{
			"mesh":1,
			"name":"eyes",
			"rotation":[
				0,
				0,
				-0.07804462313652039,
				0.9969499707221985
			],
			"translation":[
				-0.15921346843242645,
				0.7885260581970215,
				0
			]
		},
		{
			"mesh":2,
			"name":"tongue",
			"rotation":[
				0,
				0,
				-0.07804462313652039,
				0.9969499707221985
			],
			"translation":[
				-0.16707466542720795,
				0.7386239171028137,
				0
			]
		},
		{
			"mesh":3,
			"name":"teeth.long",
			"rotation":[
				0,
				0,
				-0.07804462313652039,
				0.9969499707221985
			],
			"translation":[
				-0.15921346843242645,
				0.7885260581970215,
				0
			]
		},
		{
			"mesh":4,
			"name":"teeth.front",
			"rotation":[
				0,
				0,
				-0.07804462313652039,
				0.9969499707221985
			],
			"translation":[
				-0.15921346843242645,
				0.7885260581970215,
				0
			]
		},
		{
			"mesh":5,
			"name":"teeth.back",
			"rotation":[
				0,
				0,
				-0.07804462313652039,
				0.9969499707221985
			],
			"translation":[
				-0.15921346843242645,
				0.7885260581970215,
				0
			]
		},
		{
			"mesh":6,
			"name":"neck",
			"rotation":[
				0,
				0,
				-0.07804462313652039,
				0.9969499707221985
			],
			"translation":[
				-0.15921346843242645,
				0.7885260581970215,
				0
			]
		},
		{
			"mesh":7,
			"name":"body_up",
			"rotation":[
				0,
				0,
				-0.07804462313652039,
				0.9969499707221985
			],
			"translation":[
				-0.15921346843242645,
				0.7885260581970215,
				0
			]
		},
		{
			"mesh":8,
			"name":"ears",
			"rotation":[
				0.7049499750137329,
				-0.05518588051199913,
				-0.05518588051199913,
				0.7049500346183777
			],
			"translation":[
				-0.15921346843242645,
				0.7885260581970215,
				0
			]
		},
		{
			"mesh":9,
			"name":"mouth",
			"rotation":[
				0,
				0,
				-0.07804462313652039,
				0.9969499707221985
			],
			"translation":[
				-0.15921346843242645,
				0.7885260581970215,
				0
			]
		},
		{
			"mesh":10,
			"name":"body_under",
			"rotation":[
				0,
				0,
				-0.07804462313652039,
				0.9969499707221985
			],
			"translation":[
				-0.15921346843242645,
				0.7885260581970215,
				0
			]
		}
	],
	"meshes":[
		{
			"name":"Cube.001",
			"primitives":[
				{
					"attributes":{
						"POSITION":0,
						"NORMAL":1,
						"TEXCOORD_0":2
					},
					"indices":3
				}
			]
		},
		{
			"name":"Sphere",
			"primitives":[
				{
					"attributes":{
						"POSITION":4,
						"NORMAL":5,
						"TEXCOORD_0":6
					},
					"indices":7
				}
			]
		},
		{
			"name":"Cube.002",
			"primitives":[
				{
					"attributes":{
						"POSITION":8,
						"NORMAL":9,
						"TEXCOORD_0":10
					},
					"indices":11
				}
			]
		},
		{
			"name":"Cylinder",
			"primitives":[
				{
					"attributes":{
						"POSITION":12,
						"NORMAL":13,
						"TEXCOORD_0":14
					},
					"indices":15
				}
			]
		},
		{
			"name":"Cube.004",
			"primitives":[
				{
					"attributes":{
						"POSITION":16,
						"NORMAL":17,
						"TEXCOORD_0":18
					},
					"indices":19
				}
			]
		},
		{
			"name":"Cube.005",
			"primitives":[
				{
					"attributes":{
						"POSITION":20,
						"NORMAL":21,
						"TEXCOORD_0":22
					},
					"indices":19
				}
			]
		},
		{
			"name":"Cylinder.001",
			"primitives":[
				{
					"attributes":{
						"POSITION":23,
						"NORMAL":24,
						"TEXCOORD_0":25
					},
					"indices":26
				}
			]
		},
		{
			"name":"Cube.006",
			"primitives":[
				{
					"attributes":{
						"POSITION":27,
						"NORMAL":28,
						"TEXCOORD_0":29
					},
					"indices":30
				}
			]
		},
		{
			"name":"Plane",
			"primitives":[
				{
					"attributes":{
						"POSITION":31,
						"NORMAL":32,
						"TEXCOORD_0":33
					},
					"indices":34
				}
			]
		},
		{
			"name":"Sphere.001",
			"primitives":[
				{
					"attributes":{
						"POSITION":35,
						"NORMAL":36,
						"TEXCOORD_0":37
					},
					"indices":38
				}
			]
		},
		{
			"name":"Cube.003",
			"primitives":[
				{
					"attributes":{
						"POSITION":39,
						"NORMAL":40,
						"TEXCOORD_0":41
					},
					"indices":42
				}
			]
		}
	],
	"accessors":[
		{
			"bufferView":0,
			"componentType":5126,
			"count":752,
			"max":[
				0.7057469487190247,
				1.0919753313064575,
				0.7876709699630737
			],
			"min":[
				-0.7057469487190247,
				-0.5377324819564819,
				-0.8652083277702332
			],
			"type":"VEC3"
		},
		{
			"bufferView":1,
			"componentType":5126,
			"count":752,
			"type":"VEC3"
		},
		{
			"bufferView":2,
			"componentType":5126,
			"count":752,
			"type":"VEC2"
		},
		{
			"bufferView":3,
			"componentType":5123,
			"count":2820,
			"type":"SCALAR"
		},
		{
			"bufferView":4,
			"componentType":5126,
			"count":266,
			"max":[
				0.503585934638977,
				1.488092064857483,
				-0.25403690338134766
			],
			"min":[
				-0.503585934638977,
				1.0880922079086304,
				-0.6540369391441345
			],
			"type":"VEC3"
		},
		{
			"bufferView":5,
			"componentType":5126,
			"count":266,
			"type":"VEC3"
		},
		{
			"bufferView":6,
			"componentType":5126,
			"count":266,
			"type":"VEC2"
		},
		{
			"bufferView":7,
			"componentType":5123,
			"count":1176,
			"type":"SCALAR"
		},
		{
			"bufferView":8,
			"componentType":5126,
			"count":39,
			"max":[
				0.20431998372077942,
				0.9224891066551208,
				-0.22463876008987427
			],
			"min":[
				-0.2072421759366989,
				0.7190541625022888,
				-0.7608711123466492
			],
			"type":"VEC3"
		},
		{
			"bufferView":9,
			"componentType":5126,
			"count":39,
			"type":"VEC3"
		},
		{
			"bufferView":10,
			"componentType":5126,
			"count":39,
			"type":"VEC2"
		},
		{
			"bufferView":11,
			"componentType":5123,
			"count":144,
			"type":"SCALAR"
		},
		{
			"bufferView":12,
			"componentType":5126,
			"count":140,
			"max":[
				0.25187182426452637,
				1.0607038736343384,
				-0.6780714988708496
			],
			"min":[
				-0.25187182426452637,
				0.865062415599823,
				-0.7706165313720703
			],
			"type":"VEC3"
		},
		{
			"bufferView":13,
			"componentType":5126,
			"count":140,
			"type":"VEC3"
		},
		{
			"bufferView":14,
			"componentType":5126,
			"count":140,
			"type":"VEC2"
		},
		{
			"bufferView":15,
			"componentType":5123,
			"count":552,
			"type":"SCALAR"
		},
		{
			"bufferView":16,
			"componentType":5126,
			"count":156,
			"max":[
				0.14904272556304932,
				1.0437238216400146,
				-0.7447655200958252
			],
			"min":[
				-0.14904272556304932,
				0.9392032623291016,
				-0.808567225933075
			],
			"type":"VEC3"
		},
		{
			"bufferView":17,
			"componentType":5126,
			"count":156,
			"type":"VEC3"
		},
		{
			"bufferView":18,
			"componentType":5126,
			"count":156,
			"type":"VEC2"
		},
		{
			"bufferView":19,
			"componentType":5123,
			"count":576,
			"type":"SCALAR"
		},
		{
			"bufferView":20,
			"componentType":5126,
			"count":156,
			"max":[
				0.32564398646354675,
				1.026097297668457,
				-0.6285961866378784
			],
			"min":[
				-0.32564398646354675,
				0.9018843770027161,
				-0.7423917055130005
			],
			"type":"VEC3"
		},
		{
			"bufferView":21,
			"componentType":5126,
			"count":156,
			"type":"VEC3"
		},
		{
			"bufferView":22,
			"componentType":5126,
			"count":156,
			"type":"VEC2"
		},
		{
			"bufferView":23,
			"componentType":5126,
			"count":52,
			"max":[
				0.3470016419887543,
				0.7656165957450867,
				0.3311687111854553
			],
			"min":[
				-0.23928074538707733,
				-0.078020840883255,
				-0.34267526865005493
			],
			"type":"VEC3"
		},
		{
			"bufferView":24,
			"componentType":5126,
			"count":52,
			"type":"VEC3"
		},
		{
			"bufferView":25,
			"componentType":5126,
			"count":52,
			"type":"VEC2"
		},
		{
			"bufferView":26,
			"componentType":5123,
			"count":180,
			"type":"SCALAR"
		},
		{
			"bufferView":27,
			"componentType":5126,
			"count":33,
			"max":[
				0.934651792049408,
				0.2935943603515625,
				0.7527890801429749
			],
			"min":[
				-0.5745688080787659,
				-0.9025940895080566,
				-0.7527890801429749
			],
			"type":"VEC3"
		},
		{
			"bufferView":28,
			"componentType":5126,
			"count":33,
			"type":"VEC3"
		},
		{
			"bufferView":29,
			"componentType":5126,
			"count":33,
			"type":"VEC2"
		},
		{
			"bufferView":30,
			"componentType":5123,
			"count":138,
			"type":"SCALAR"
		},
		{
			"bufferView":31,
			"componentType":5126,
			"count":180,
			"max":[
				0.8757275342941284,
				0.08395087718963623,
				-0.8051039576530457
			],
			"min":[
				-0.8757275342941284,
				-0.010000200942158699,
				-1.159653663635254
			],
			"type":"VEC3"
		},
		{
			"bufferView":32,
			"componentType":5126,
			"count":180,
			"type":"VEC3"
		},
		{
			"bufferView":33,
			"componentType":5126,
			"count":180,
			"type":"VEC2"
		},
		{
			"bufferView":34,
			"componentType":5123,
			"count":912,
			"type":"SCALAR"
		},
		{
			"bufferView":35,
			"componentType":5126,
			"count":123,
			"max":[
				0.43322044610977173,
				1.1521624326705933,
				-0.16532498598098755
			],
			"min":[
				-0.43581831455230713,
				0.6187868714332581,
				-0.8391490578651428
			],
			"type":"VEC3"
		},
		{
			"bufferView":36,
			"componentType":5126,
			"count":123,
			"type":"VEC3"
		},
		{
			"bufferView":37,
			"componentType":5126,
			"count":123,
			"type":"VEC2"
		},
		{
			"bufferView":38,
			"componentType":5123,
			"count":480,
			"type":"SCALAR"
		},
		{
			"bufferView":39,
			"componentType":5126,
			"count":80,
			"max":[
				1.2931467294692993,
				-0.6614489555358887,
				0.7071067094802856
			],
			"min":[
				-0.45885059237480164,
				-3.6430141925811768,
				-0.7071067094802856
			],
			"type":"VEC3"
		},
		{
			"bufferView":40,
			"componentType":5126,
			"count":80,
			"type":"VEC3"
		},
		{
			"bufferView":41,
			"componentType":5126,
			"count":80,
			"type":"VEC2"
		},
		{
			"bufferView":42,
			"componentType":5123,
			"count":120,
			"type":"SCALAR"
		}
	],
	"bufferViews":[
		{
			"buffer":0,
			"byteLength":9024,
			"byteOffset":0,
			"target":34962
		},
		{
			"buffer":0,
			"byteLength":9024,
			"byteOffset":9024,
			"target":34962
		},
		{
			"buffer":0,
			"byteLength":6016,
			"byteOffset":18048,
			"target":34962
		},
		{
			"buffer":0,
			"byteLength":5640,
			"byteOffset":24064,
			"target":34963
		},
		{
			"buffer":0,
			"byteLength":3192,
			"byteOffset":29704,
			"target":34962
		},
		{
			"buffer":0,
			"byteLength":3192,
			"byteOffset":32896,
			"target":34962
		},
		{
			"buffer":0,
			"byteLength":2128,
			"byteOffset":36088,
			"target":34962
		},
		{
			"buffer":0,
			"byteLength":2352,
			"byteOffset":38216,
			"target":34963
		},
		{
			"buffer":0,
			"byteLength":468,
			"byteOffset":40568,
			"target":34962
		},
		{
			"buffer":0,
			"byteLength":468,
			"byteOffset":41036,
			"target":34962
		},
		{
			"buffer":0,
			"byteLength":312,
			"byteOffset":41504,
			"target":34962
		},
		{
			"buffer":0,
			"byteLength":288,
			"byteOffset":41816,
			"target":34963
		},
		{
			"buffer":0,
			"byteLength":1680,
			"byteOffset":42104,
			"target":34962
		},
		{
			"buffer":0,
			"byteLength":1680,
			"byteOffset":43784,
			"target":34962
		},
		{
			"buffer":0,
			"byteLength":1120,
			"byteOffset":45464,
			"target":34962
		},
		{
			"buffer":0,
			"byteLength":1104,
			"byteOffset":46584,
			"target":34963
		},
		{
			"buffer":0,
			"byteLength":1872,
			"byteOffset":47688,
			"target":34962
		},
		{
			"buffer":0,
			"byteLength":1872,
			"byteOffset":49560,
			"target":34962
		},
		{
			"buffer":0,
			"byteLength":1248,
			"byteOffset":51432,
			"target":34962
		},
		{
			"buffer":0,
			"byteLength":1152,
			"byteOffset":52680,
			"target":34963
		},
		{
			"buffer":0,
			"byteLength":1872,
			"byteOffset":53832,
			"target":34962
		},
		{
			"buffer":0,
			"byteLength":1872,
			"byteOffset":55704,
			"target":34962
		},
		{
			"buffer":0,
			"byteLength":1248,
			"byteOffset":57576,
			"target":34962
		},
		{
			"buffer":0,
			"byteLength":624,
			"byteOffset":58824,
			"target":34962
		},
		{
			"buffer":0,
			"byteLength":624,
			"byteOffset":59448,
			"target":34962
		},
		{
			"buffer":0,
			"byteLength":416,
			"byteOffset":60072,
			"target":34962
		},
		{
			"buffer":0,
			"byteLength":360,
			"byteOffset":60488,
			"target":34963
		},
		{
			"buffer":0,
			"byteLength":396,
			"byteOffset":60848,
			"target":34962
		},
		{
			"buffer":0,
			"byteLength":396,
			"byteOffset":61244,
			"target":34962
		},
		{
			"buffer":0,
			"byteLength":264,
			"byteOffset":61640,
			"target":34962
		},
		{
			"buffer":0,
			"byteLength":276,
			"byteOffset":61904,
			"target":34963
		},
		{
			"buffer":0,
			"byteLength":2160,
			"byteOffset":62180,
			"target":34962
		},
		{
			"buffer":0,
			"byteLength":2160,
			"byteOffset":64340,
			"target":34962
		},
		{
			"buffer":0,
			"byteLength":1440,
			"byteOffset":66500,
			"target":34962
		},
		{
			"buffer":0,
			"byteLength":1824,
			"byteOffset":67940,
			"target":34963
		},
		{
			"buffer":0,
			"byteLength":1476,
			"byteOffset":69764,
			"target":34962
		},
		{
			"buffer":0,
			"byteLength":1476,
			"byteOffset":71240,
			"target":34962
		},
		{
			"buffer":0,
			"byteLength":984,
			"byteOffset":72716,
			"target":34962
		},
		{
			"buffer":0,
			"byteLength":960,
			"byteOffset":73700,
			"target":34963
		},
		{
			"buffer":0,
			"byteLength":960,
			"byteOffset":74660,
			"target":34962
		},
		{
			"buffer":0,
			"byteLength":960,
			"byteOffset":75620,
			"target":34962
		},
		{
			"buffer":0,
			"byteLength":640,
			"byteOffset":76580,
			"target":34962
		},
		{
			"buffer":0,
			"byteLength":240,
			"byteOffset":77220,
			"target":34963
		}
	],
	"buffers":[
		{
			"byteLength":77460,
			"uri":"vampire_longbody.bin"
		}
	]
}
