{
	"asset":{
		"generator":"Khronos glTF Blender I/O v4.1.63",
		"version":"2.0"
	},
	"extensionsUsed":[
		"KHR_materials_transmission"
	],
	"scene":0,
	"scenes":[
		{
			"name":"Scene",
			"nodes":[
				0,
				1,
				2,
				3,
				4,
				5,
				6,
				7,
				8,
				9
			]
		}
	],
	"nodes":[
		{
			"mesh":0,
			"name":"device"
		},
		{
			"mesh":1,
			"name":"cover"
		},
		{
			"mesh":2,
			"name":"screenbox"
		},
		{
			"mesh":3,
			"name":"button.center"
		},
		{
			"mesh":4,
			"name":"button.left"
		},
		{
			"mesh":5,
			"name":"button.right"
		},
		{
			"mesh":6,
			"name":"screen"
		},
		{
			"mesh":7,
			"name":"Plane",
			"translation":[
				0,
				0,
				6.855308532714844
			]
		},
		{
			"mesh":8,
			"name":"Plane.001",
			"translation":[
				0,
				0,
				6.855308532714844
			]
		},
		{
			"mesh":9,
			"name":"Plane.002",
			"translation":[
				0,
				0,
				6.855308532714844
			]
		}
	],
	"materials":[
		{
			"doubleSided":true,
			"name":"Material.device",
			"pbrMetallicRoughness":{
				"baseColorFactor":[
					0.2622489333152771,
					0.2622509002685547,
					0.26225078105926514,
					1
				],
				"metallicFactor":0.9276139140129089,
				"roughnessFactor":0.3391421139240265
			}
		},
		{
			"doubleSided":true,
			"name":"Material.cover",
			"pbrMetallicRoughness":{
				"baseColorFactor":[
					0.45640867948532104,
					0.011612201109528542,
					0.011612259782850742,
					1
				],
				"metallicFactor":0,
				"roughnessFactor":0.9932975769042969
			}
		},
		{
			"doubleSided":true,
			"name":"Material.screen",
			"pbrMetallicRoughness":{
				"baseColorFactor":[
					0.027320461347699165,
					0.25818324089050293,
					0.09530757367610931,
					1
				],
				"metallicFactor":0.24396783113479614,
				"roughnessFactor":0.6501340270042419
			}
		},
		{
			"doubleSided":true,
			"name":"Material.buttons",
			"pbrMetallicRoughness":{
				"baseColorFactor":[
					0.2622489333152771,
					0.2622509002685547,
					0.26225078105926514,
					0.800000011920929
				],
				"roughnessFactor":0.19973188638687134
			}
		},
		{
			"doubleSided":true,
			"extensions":{
				"KHR_materials_transmission":{
					"transmissionFactor":1
				}
			},
			"name":"Material.screen.001",
			"pbrMetallicRoughness":{
				"baseColorFactor":[
					0.800000011920929,
					0.800000011920929,
					0.800000011920929,
					1
				],
				"metallicFactor":0,
				"roughnessFactor":0
			}
		},
		{
			"doubleSided":true,
			"name":"Material.teststripe",
			"pbrMetallicRoughness":{
				"baseColorFactor":[
					0,
					0,
					0,
					1
				],
				"metallicFactor":0.5308310985565186,
				"roughnessFactor":0.6420911550521851
			}
		},
		{
			"doubleSided":true,
			"name":"Material.teststripe_details",
			"pbrMetallicRoughness":{
				"baseColorFactor":[
					0.2622489333152771,
					0.2622509002685547,
					0.26225078105926514,
					1
				],
				"metallicFactor":0.8659517168998718,
				"roughnessFactor":0.1434316337108612
			}
		}
	],
	"meshes":[
		{
			"name":"device",
			"primitives":[
				{
					"attributes":{
						"POSITION":0,
						"NORMAL":1
					},
					"indices":2,
					"material":0
				}
			]
		},
		{
			"name":"Plane.001",
			"primitives":[
				{
					"attributes":{
						"POSITION":3,
						"NORMAL":4
					},
					"indices":5,
					"material":1
				}
			]
		},
		{
			"name":"box",
			"primitives":[
				{
					"attributes":{
						"POSITION":6,
						"NORMAL":7
					},
					"indices":8,
					"material":2
				}
			]
		},
		{
			"name":"device.002",
			"primitives":[
				{
					"attributes":{
						"POSITION":9,
						"NORMAL":10
					},
					"indices":11,
					"material":3
				}
			]
		},
		{
			"name":"device.003",
			"primitives":[
				{
					"attributes":{
						"POSITION":12,
						"NORMAL":13
					},
					"indices":14,
					"material":3
				}
			]
		},
		{
			"name":"device.004",
			"primitives":[
				{
					"attributes":{
						"POSITION":15,
						"NORMAL":16
					},
					"indices":17,
					"material":3
				}
			]
		},
		{
			"name":"box.001",
			"primitives":[
				{
					"attributes":{
						"POSITION":18,
						"NORMAL":19
					},
					"indices":20,
					"material":4
				}
			]
		},
		{
			"name":"Plane",
			"primitives":[
				{
					"attributes":{
						"POSITION":21,
						"NORMAL":22
					},
					"indices":23,
					"material":5
				}
			]
		},
		{
			"name":"Plane.003",
			"primitives":[
				{
					"attributes":{
						"POSITION":24,
						"NORMAL":25
					},
					"indices":26,
					"material":6
				}
			]
		},
		{
			"name":"Plane.004",
			"primitives":[
				{
					"attributes":{
						"POSITION":27,
						"NORMAL":28
					},
					"indices":29,
					"material":6
				}
			]
		}
	],
	"accessors":[
		{
			"bufferView":0,
			"componentType":5126,
			"count":286,
			"max":[
				1.6801620721817017,
				0.8700000047683716,
				2.492232084274292
			],
			"min":[
				-1.6801620721817017,
				-0.10000000149011612,
				-2.5120389461517334
			],
			"type":"VEC3"
		},
		{
			"bufferView":1,
			"componentType":5126,
			"count":286,
			"type":"VEC3"
		},
		{
			"bufferView":2,
			"componentType":5123,
			"count":1644,
			"type":"SCALAR"
		},
		{
			"bufferView":3,
			"componentType":5126,
			"count":520,
			"max":[
				1.7138761281967163,
				0.8599338531494141,
				2.5396292209625244
			],
			"min":[
				-1.7136551141738892,
				-0.10906615853309631,
				-2.5647270679473877
			],
			"type":"VEC3"
		},
		{
			"bufferView":4,
			"componentType":5126,
			"count":520,
			"type":"VEC3"
		},
		{
			"bufferView":5,
			"componentType":5123,
			"count":3120,
			"type":"SCALAR"
		},
		{
			"bufferView":6,
			"componentType":5126,
			"count":48,
			"max":[
				1.12539803981781,
				0.8500000238418579,
				0.048726558685302734
			],
			"min":[
				-1.115398645401001,
				-0.04999997466802597,
				-1.743187665939331
			],
			"type":"VEC3"
		},
		{
			"bufferView":7,
			"componentType":5126,
			"count":48,
			"type":"VEC3"
		},
		{
			"bufferView":8,
			"componentType":5123,
			"count":150,
			"type":"SCALAR"
		},
		{
			"bufferView":9,
			"componentType":5126,
			"count":78,
			"max":[
				0.34899479150772095,
				0.8999999761581421,
				1.8478034734725952
			],
			"min":[
				-0.3526443839073181,
				0.8500000238418579,
				0.5532166361808777
			],
			"type":"VEC3"
		},
		{
			"bufferView":10,
			"componentType":5126,
			"count":78,
			"type":"VEC3"
		},
		{
			"bufferView":11,
			"componentType":5123,
			"count":132,
			"type":"SCALAR"
		},
		{
			"bufferView":12,
			"componentType":5126,
			"count":41,
			"max":[
				-0.0027327537536621094,
				0.899335503578186,
				1.0313009023666382
			],
			"min":[
				-1.115398645401001,
				0.8500000238418579,
				0.27001285552978516
			],
			"type":"VEC3"
		},
		{
			"bufferView":13,
			"componentType":5126,
			"count":41,
			"type":"VEC3"
		},
		{
			"bufferView":14,
			"componentType":5123,
			"count":63,
			"type":"SCALAR"
		},
		{
			"bufferView":15,
			"componentType":5126,
			"count":41,
			"max":[
				1.125397801399231,
				0.8993343710899353,
				1.0313009023666382
			],
			"min":[
				-0.0028329347260296345,
				0.8500000238418579,
				0.27001282572746277
			],
			"type":"VEC3"
		},
		{
			"bufferView":16,
			"componentType":5126,
			"count":41,
			"type":"VEC3"
		},
		{
			"bufferView":17,
			"componentType":5123,
			"count":63,
			"type":"SCALAR"
		},
		{
			"bufferView":18,
			"componentType":5126,
			"count":4,
			"max":[
				1.12539803981781,
				0.8500000238418579,
				0.048726558685302734
			],
			"min":[
				-1.115398645401001,
				0.8500000238418579,
				-1.743187665939331
			],
			"type":"VEC3"
		},
		{
			"bufferView":19,
			"componentType":5126,
			"count":4,
			"type":"VEC3"
		},
		{
			"bufferView":20,
			"componentType":5123,
			"count":6,
			"type":"SCALAR"
		},
		{
			"bufferView":21,
			"componentType":5126,
			"count":210,
			"max":[
				0.20500577986240387,
				0.4239285886287689,
				-1.212670922279358
			],
			"min":[
				-0.20381557941436768,
				0.3941091299057007,
				-3.22634220123291
			],
			"type":"VEC3"
		},
		{
			"bufferView":22,
			"componentType":5126,
			"count":210,
			"type":"VEC3"
		},
		{
			"bufferView":23,
			"componentType":5123,
			"count":552,
			"type":"SCALAR"
		},
		{
			"bufferView":24,
			"componentType":5126,
			"count":68,
			"max":[
				0.15405498445034027,
				0.4164285957813263,
				-2.770841121673584
			],
			"min":[
				-0.14920398592948914,
				0.40892860293388367,
				-3.184804677963257
			],
			"type":"VEC3"
		},
		{
			"bufferView":25,
			"componentType":5126,
			"count":68,
			"type":"VEC3"
		},
		{
			"bufferView":26,
			"componentType":5123,
			"count":102,
			"type":"SCALAR"
		},
		{
			"bufferView":27,
			"componentType":5126,
			"count":8,
			"max":[
				0.039805032312870026,
				0.4114286005496979,
				-1.212670922279358
			],
			"min":[
				-0.0365886390209198,
				0.4114286005496979,
				-1.452829122543335
			],
			"type":"VEC3"
		},
		{
			"bufferView":28,
			"componentType":5126,
			"count":8,
			"type":"VEC3"
		},
		{
			"bufferView":29,
			"componentType":5123,
			"count":18,
			"type":"SCALAR"
		}
	],
	"bufferViews":[
		{
			"buffer":0,
			"byteLength":3432,
			"byteOffset":0,
			"target":34962
		},
		{
			"buffer":0,
			"byteLength":3432,
			"byteOffset":3432,
			"target":34962
		},
		{
			"buffer":0,
			"byteLength":3288,
			"byteOffset":6864,
			"target":34963
		},
		{
			"buffer":0,
			"byteLength":6240,
			"byteOffset":10152,
			"target":34962
		},
		{
			"buffer":0,
			"byteLength":6240,
			"byteOffset":16392,
			"target":34962
		},
		{
			"buffer":0,
			"byteLength":6240,
			"byteOffset":22632,
			"target":34963
		},
		{
			"buffer":0,
			"byteLength":576,
			"byteOffset":28872,
			"target":34962
		},
		{
			"buffer":0,
			"byteLength":576,
			"byteOffset":29448,
			"target":34962
		},
		{
			"buffer":0,
			"byteLength":300,
			"byteOffset":30024,
			"target":34963
		},
		{
			"buffer":0,
			"byteLength":936,
			"byteOffset":30324,
			"target":34962
		},
		{
			"buffer":0,
			"byteLength":936,
			"byteOffset":31260,
			"target":34962
		},
		{
			"buffer":0,
			"byteLength":264,
			"byteOffset":32196,
			"target":34963
		},
		{
			"buffer":0,
			"byteLength":492,
			"byteOffset":32460,
			"target":34962
		},
		{
			"buffer":0,
			"byteLength":492,
			"byteOffset":32952,
			"target":34962
		},
		{
			"buffer":0,
			"byteLength":126,
			"byteOffset":33444,
			"target":34963
		},
		{
			"buffer":0,
			"byteLength":492,
			"byteOffset":33572,
			"target":34962
		},
		{
			"buffer":0,
			"byteLength":492,
			"byteOffset":34064,
			"target":34962
		},
		{
			"buffer":0,
			"byteLength":126,
			"byteOffset":34556,
			"target":34963
		},
		{
			"buffer":0,
			"byteLength":48,
			"byteOffset":34684,
			"target":34962
		},
		{
			"buffer":0,
			"byteLength":48,
			"byteOffset":34732,
			"target":34962
		},
		{
			"buffer":0,
			"byteLength":12,
			"byteOffset":34780,
			"target":34963
		},
		{
			"buffer":0,
			"byteLength":2520,
			"byteOffset":34792,
			"target":34962
		},
		{
			"buffer":0,
			"byteLength":2520,
			"byteOffset":37312,
			"target":34962
		},
		{
			"buffer":0,
			"byteLength":1104,
			"byteOffset":39832,
			"target":34963
		},
		{
			"buffer":0,
			"byteLength":816,
			"byteOffset":40936,
			"target":34962
		},
		{
			"buffer":0,
			"byteLength":816,
			"byteOffset":41752,
			"target":34962
		},
		{
			"buffer":0,
			"byteLength":204,
			"byteOffset":42568,
			"target":34963
		},
		{
			"buffer":0,
			"byteLength":96,
			"byteOffset":42772,
			"target":34962
		},
		{
			"buffer":0,
			"byteLength":96,
			"byteOffset":42868,
			"target":34962
		},
		{
			"buffer":0,
			"byteLength":36,
			"byteOffset":42964,
			"target":34963
		}
	],
	"buffers":[
		{
			"byteLength":43000,
			"uri":"tamagotchi.bin"
		}
	]
}
