{
	"asset":{
		"generator":"Khronos glTF Blender I/O v4.1.63",
		"version":"2.0"
	},
	"scene":0,
	"scenes":[
		{
			"name":"Scene",
			"nodes":[
				0,
				1
			]
		}
	],
	"nodes":[
		{
			"mesh":0,
			"name":"syringe",
			"rotation":[
				-0.011544287204742432,
				0.006928799208253622,
				0.33058351278305054,
				0.9436808228492737
			],
			"translation":[
				0,
				1.2884550094604492,
				0
			]
		},
		{
			"mesh":1,
			"name":"fluid",
			"rotation":[
				-0.011544287204742432,
				0.006928799208253622,
				0.33058351278305054,
				0.9436808228492737
			],
			"translation":[
				0,
				1.2884550094604492,
				0
			]
		}
	],
	"materials":[
		{
			"doubleSided":true,
			"name":"Material.syringe",
			"pbrMetallicRoughness":{}
		},
		{
			"doubleSided":true,
			"name":"Material.fluid",
			"pbrMetallicRoughness":{}
		}
	],
	"meshes":[
		{
			"name":"Cylinder",
			"primitives":[
				{
					"attributes":{
						"POSITION":0,
						"NORMAL":1,
						"TEXCOORD_0":2
					},
					"indices":3,
					"material":0
				}
			]
		},
		{
			"name":"Cylinder.001",
			"primitives":[
				{
					"attributes":{
						"POSITION":4,
						"NORMAL":5,
						"TEXCOORD_0":6
					},
					"indices":7,
					"material":1
				}
			]
		}
	],
	"accessors":[
		{
			"bufferView":0,
			"componentType":5126,
			"count":356,
			"max":[
				0.45480218529701233,
				1.3500010967254639,
				0.4548022150993347
			],
			"min":[
				-0.4548022150993347,
				-1.600000023841858,
				-0.4548022150993347
			],
			"type":"VEC3"
		},
		{
			"bufferView":1,
			"componentType":5126,
			"count":356,
			"type":"VEC3"
		},
		{
			"bufferView":2,
			"componentType":5126,
			"count":356,
			"type":"VEC2"
		},
		{
			"bufferView":3,
			"componentType":5123,
			"count":1716,
			"type":"SCALAR"
		},
		{
			"bufferView":4,
			"componentType":5126,
			"count":320,
			"max":[
				0.24250006675720215,
				0.21094892919063568,
				0.24250000715255737
			],
			"min":[
				-0.24250000715255737,
				-1.1760001182556152,
				-0.24250000715255737
			],
			"type":"VEC3"
		},
		{
			"bufferView":5,
			"componentType":5126,
			"count":320,
			"type":"VEC3"
		},
		{
			"bufferView":6,
			"componentType":5126,
			"count":320,
			"type":"VEC2"
		},
		{
			"bufferView":7,
			"componentType":5123,
			"count":564,
			"type":"SCALAR"
		}
	],
	"bufferViews":[
		{
			"buffer":0,
			"byteLength":4272,
			"byteOffset":0,
			"target":34962
		},
		{
			"buffer":0,
			"byteLength":4272,
			"byteOffset":4272,
			"target":34962
		},
		{
			"buffer":0,
			"byteLength":2848,
			"byteOffset":8544,
			"target":34962
		},
		{
			"buffer":0,
			"byteLength":3432,
			"byteOffset":11392,
			"target":34963
		},
		{
			"buffer":0,
			"byteLength":3840,
			"byteOffset":14824,
			"target":34962
		},
		{
			"buffer":0,
			"byteLength":3840,
			"byteOffset":18664,
			"target":34962
		},
		{
			"buffer":0,
			"byteLength":2560,
			"byteOffset":22504,
			"target":34962
		},
		{
			"buffer":0,
			"byteLength":1128,
			"byteOffset":25064,
			"target":34963
		}
	],
	"buffers":[
		{
			"byteLength":26192,
			"uri":"medicine.bin"
		}
	]
}
