{
	"asset":{
		"generator":"Khronos glTF Blender I/O v4.1.63",
		"version":"2.0"
	},
	"scene":0,
	"scenes":[
		{
			"name":"Scene",
			"nodes":[
				0,
				1,
				2,
				3,
				4,
				5,
				6,
				7,
				8
			]
		}
	],
	"nodes":[
		{
			"mesh":0,
			"name":"baseballbat",
			"translation":[
				0,
				1,
				0
			]
		},
		{
			"mesh":1,
			"name":"body",
			"rotation":[
				0.11857203394174576,
				-0.8488832116127014,
				-0.023321483284235,
				0.5145815014839172
			],
			"translation":[
				9.901832580566406,
				2.023284435272217,
				9.441994667053223
			]
		},
		{
			"mesh":2,
			"name":"wings",
			"rotation":[
				0.11857203394174576,
				-0.8488832116127014,
				-0.023321483284235,
				0.5145815014839172
			],
			"translation":[
				9.901832580566406,
				2.023284435272217,
				9.441994667053223
			]
		},
		{
			"mesh":3,
			"name":"vingers",
			"rotation":[
				0.11857203394174576,
				-0.8488832116127014,
				-0.023321483284235,
				0.5145815014839172
			],
			"translation":[
				9.901832580566406,
				2.023284435272217,
				9.441994667053223
			]
		},
		{
			"mesh":4,
			"name":"arm",
			"rotation":[
				0.11857203394174576,
				-0.8488832116127014,
				-0.023321483284235,
				0.5145815014839172
			],
			"translation":[
				9.901832580566406,
				2.023284435272217,
				9.441994667053223
			]
		},
		{
			"mesh":5,
			"name":"leg",
			"rotation":[
				0.11857203394174576,
				-0.8488832116127014,
				-0.023321483284235,
				0.5145815014839172
			],
			"translation":[
				9.901832580566406,
				2.023284435272217,
				9.441994667053223
			]
		},
		{
			"mesh":6,
			"name":"eye",
			"rotation":[
				0.11857203394174576,
				-0.8488832116127014,
				-0.023321483284235,
				0.5145815014839172
			],
			"translation":[
				9.901832580566406,
				2.023284435272217,
				9.441994667053223
			]
		},
		{
			"mesh":7,
			"name":"theet",
			"rotation":[
				0.11857203394174576,
				-0.8488832116127014,
				-0.023321483284235,
				0.5145815014839172
			],
			"translation":[
				9.901832580566406,
				2.023284435272217,
				9.441994667053223
			]
		},
		{
			"mesh":8,
			"name":"tongue",
			"rotation":[
				0.11857203394174576,
				-0.8488832116127014,
				-0.023321483284235,
				0.5145815014839172
			],
			"translation":[
				9.901832580566406,
				2.023284435272217,
				9.441994667053223
			]
		}
	],
	"meshes":[
		{
			"name":"Cylinder",
			"primitives":[
				{
					"attributes":{
						"POSITION":0,
						"NORMAL":1,
						"TEXCOORD_0":2
					},
					"indices":3
				}
			]
		},
		{
			"name":"Cube",
			"primitives":[
				{
					"attributes":{
						"POSITION":4,
						"NORMAL":5,
						"TEXCOORD_0":6
					},
					"indices":7
				}
			]
		},
		{
			"name":"Cube.001",
			"primitives":[
				{
					"attributes":{
						"POSITION":8,
						"NORMAL":9,
						"TEXCOORD_0":10
					},
					"indices":11
				}
			]
		},
		{
			"name":"Cube.004",
			"primitives":[
				{
					"attributes":{
						"POSITION":12,
						"NORMAL":13,
						"TEXCOORD_0":14
					},
					"indices":15
				}
			]
		},
		{
			"name":"Cube.005",
			"primitives":[
				{
					"attributes":{
						"POSITION":16,
						"NORMAL":17,
						"TEXCOORD_0":18
					},
					"indices":19
				}
			]
		},
		{
			"name":"Cube.006",
			"primitives":[
				{
					"attributes":{
						"POSITION":20,
						"NORMAL":21,
						"TEXCOORD_0":22
					},
					"indices":23
				}
			]
		},
		{
			"name":"Sphere",
			"primitives":[
				{
					"attributes":{
						"POSITION":24,
						"NORMAL":25,
						"TEXCOORD_0":26
					},
					"indices":27
				}
			]
		},
		{
			"name":"Cone.001",
			"primitives":[
				{
					"attributes":{
						"POSITION":28,
						"NORMAL":29,
						"TEXCOORD_0":30
					},
					"indices":31
				}
			]
		},
		{
			"name":"Cube.007",
			"primitives":[
				{
					"attributes":{
						"POSITION":32,
						"NORMAL":33,
						"TEXCOORD_0":34
					},
					"indices":35
				}
			]
		}
	],
	"accessors":[
		{
			"bufferView":0,
			"componentType":5126,
			"count":706,
			"max":[
				1.4116218090057373,
				15.81374454498291,
				4.250801086425781
			],
			"min":[
				-1.4116218090057373,
				-0.5656242370605469,
				-4.508269309997559
			],
			"type":"VEC3"
		},
		{
			"bufferView":1,
			"componentType":5126,
			"count":706,
			"type":"VEC3"
		},
		{
			"bufferView":2,
			"componentType":5126,
			"count":706,
			"type":"VEC2"
		},
		{
			"bufferView":3,
			"componentType":5123,
			"count":2484,
			"type":"SCALAR"
		},
		{
			"bufferView":4,
			"componentType":5126,
			"count":1018,
			"max":[
				1.383422613143921,
				11.180256843566895,
				10.321818351745605
			],
			"min":[
				-1.3834227323532104,
				9.536179542541504,
				7.225769519805908
			],
			"type":"VEC3"
		},
		{
			"bufferView":5,
			"componentType":5126,
			"count":1018,
			"type":"VEC3"
		},
		{
			"bufferView":6,
			"componentType":5126,
			"count":1018,
			"type":"VEC2"
		},
		{
			"bufferView":7,
			"componentType":5123,
			"count":1590,
			"type":"SCALAR"
		},
		{
			"bufferView":8,
			"componentType":5126,
			"count":64,
			"max":[
				3.54876446723938,
				14.662158966064453,
				10.900172233581543
			],
			"min":[
				-9.959633462131023e-05,
				9.816393852233887,
				7.347391605377197
			],
			"type":"VEC3"
		},
		{
			"bufferView":9,
			"componentType":5126,
			"count":64,
			"type":"VEC3"
		},
		{
			"bufferView":10,
			"componentType":5126,
			"count":64,
			"type":"VEC2"
		},
		{
			"bufferView":11,
			"componentType":5123,
			"count":231,
			"type":"SCALAR"
		},
		{
			"bufferView":12,
			"componentType":5126,
			"count":33,
			"max":[
				3.54876446723938,
				14.662158966064453,
				9.405259132385254
			],
			"min":[
				1.4170918464660645,
				12.257758140563965,
				7.347391605377197
			],
			"type":"VEC3"
		},
		{
			"bufferView":13,
			"componentType":5126,
			"count":33,
			"type":"VEC3"
		},
		{
			"bufferView":14,
			"componentType":5126,
			"count":33,
			"type":"VEC2"
		},
		{
			"bufferView":15,
			"componentType":5123,
			"count":75,
			"type":"SCALAR"
		},
		{
			"bufferView":16,
			"componentType":5126,
			"count":37,
			"max":[
				2.0423665046691895,
				12.456680297851562,
				8.71825885772705
			],
			"min":[
				1.115378975868225,
				10.205924034118652,
				7.0554399490356445
			],
			"type":"VEC3"
		},
		{
			"bufferView":17,
			"componentType":5126,
			"count":37,
			"type":"VEC3"
		},
		{
			"bufferView":18,
			"componentType":5126,
			"count":37,
			"type":"VEC2"
		},
		{
			"bufferView":19,
			"componentType":5123,
			"count":105,
			"type":"SCALAR"
		},
		{
			"bufferView":20,
			"componentType":5126,
			"count":153,
			"max":[
				1.045212745666504,
				10.315653800964355,
				11.386570930480957
			],
			"min":[
				0.44143158197402954,
				9.828317642211914,
				9.897095680236816
			],
			"type":"VEC3"
		},
		{
			"bufferView":21,
			"componentType":5126,
			"count":153,
			"type":"VEC3"
		},
		{
			"bufferView":22,
			"componentType":5126,
			"count":153,
			"type":"VEC2"
		},
		{
			"bufferView":23,
			"componentType":5123,
			"count":888,
			"type":"SCALAR"
		},
		{
			"bufferView":24,
			"componentType":5126,
			"count":160,
			"max":[
				-0.28983089327812195,
				10.268851280212402,
				7.7339959144592285
			],
			"min":[
				-0.4666983187198639,
				10.091225624084473,
				7.557882785797119
			],
			"type":"VEC3"
		},
		{
			"bufferView":25,
			"componentType":5126,
			"count":160,
			"type":"VEC3"
		},
		{
			"bufferView":26,
			"componentType":5126,
			"count":160,
			"type":"VEC2"
		},
		{
			"bufferView":27,
			"componentType":5123,
			"count":714,
			"type":"SCALAR"
		},
		{
			"bufferView":28,
			"componentType":5126,
			"count":88,
			"max":[
				-0.0008365325629711151,
				10.000300407409668,
				7.396135330200195
			],
			"min":[
				-0.1892184317111969,
				9.739450454711914,
				7.262068271636963
			],
			"type":"VEC3"
		},
		{
			"bufferView":29,
			"componentType":5126,
			"count":88,
			"type":"VEC3"
		},
		{
			"bufferView":30,
			"componentType":5126,
			"count":88,
			"type":"VEC2"
		},
		{
			"bufferView":31,
			"componentType":5123,
			"count":372,
			"type":"SCALAR"
		},
		{
			"bufferView":32,
			"componentType":5126,
			"count":39,
			"max":[
				0.18087926506996155,
				9.827311515808105,
				7.917670726776123
			],
			"min":[
				-0.18087926506996155,
				9.667387008666992,
				7.325300693511963
			],
			"type":"VEC3"
		},
		{
			"bufferView":33,
			"componentType":5126,
			"count":39,
			"type":"VEC3"
		},
		{
			"bufferView":34,
			"componentType":5126,
			"count":39,
			"type":"VEC2"
		},
		{
			"bufferView":35,
			"componentType":5123,
			"count":144,
			"type":"SCALAR"
		}
	],
	"bufferViews":[
		{
			"buffer":0,
			"byteLength":8472,
			"byteOffset":0,
			"target":34962
		},
		{
			"buffer":0,
			"byteLength":8472,
			"byteOffset":8472,
			"target":34962
		},
		{
			"buffer":0,
			"byteLength":5648,
			"byteOffset":16944,
			"target":34962
		},
		{
			"buffer":0,
			"byteLength":4968,
			"byteOffset":22592,
			"target":34963
		},
		{
			"buffer":0,
			"byteLength":12216,
			"byteOffset":27560,
			"target":34962
		},
		{
			"buffer":0,
			"byteLength":12216,
			"byteOffset":39776,
			"target":34962
		},
		{
			"buffer":0,
			"byteLength":8144,
			"byteOffset":51992,
			"target":34962
		},
		{
			"buffer":0,
			"byteLength":3180,
			"byteOffset":60136,
			"target":34963
		},
		{
			"buffer":0,
			"byteLength":768,
			"byteOffset":63316,
			"target":34962
		},
		{
			"buffer":0,
			"byteLength":768,
			"byteOffset":64084,
			"target":34962
		},
		{
			"buffer":0,
			"byteLength":512,
			"byteOffset":64852,
			"target":34962
		},
		{
			"buffer":0,
			"byteLength":462,
			"byteOffset":65364,
			"target":34963
		},
		{
			"buffer":0,
			"byteLength":396,
			"byteOffset":65828,
			"target":34962
		},
		{
			"buffer":0,
			"byteLength":396,
			"byteOffset":66224,
			"target":34962
		},
		{
			"buffer":0,
			"byteLength":264,
			"byteOffset":66620,
			"target":34962
		},
		{
			"buffer":0,
			"byteLength":150,
			"byteOffset":66884,
			"target":34963
		},
		{
			"buffer":0,
			"byteLength":444,
			"byteOffset":67036,
			"target":34962
		},
		{
			"buffer":0,
			"byteLength":444,
			"byteOffset":67480,
			"target":34962
		},
		{
			"buffer":0,
			"byteLength":296,
			"byteOffset":67924,
			"target":34962
		},
		{
			"buffer":0,
			"byteLength":210,
			"byteOffset":68220,
			"target":34963
		},
		{
			"buffer":0,
			"byteLength":1836,
			"byteOffset":68432,
			"target":34962
		},
		{
			"buffer":0,
			"byteLength":1836,
			"byteOffset":70268,
			"target":34962
		},
		{
			"buffer":0,
			"byteLength":1224,
			"byteOffset":72104,
			"target":34962
		},
		{
			"buffer":0,
			"byteLength":1776,
			"byteOffset":73328,
			"target":34963
		},
		{
			"buffer":0,
			"byteLength":1920,
			"byteOffset":75104,
			"target":34962
		},
		{
			"buffer":0,
			"byteLength":1920,
			"byteOffset":77024,
			"target":34962
		},
		{
			"buffer":0,
			"byteLength":1280,
			"byteOffset":78944,
			"target":34962
		},
		{
			"buffer":0,
			"byteLength":1428,
			"byteOffset":80224,
			"target":34963
		},
		{
			"buffer":0,
			"byteLength":1056,
			"byteOffset":81652,
			"target":34962
		},
		{
			"buffer":0,
			"byteLength":1056,
			"byteOffset":82708,
			"target":34962
		},
		{
			"buffer":0,
			"byteLength":704,
			"byteOffset":83764,
			"target":34962
		},
		{
			"buffer":0,
			"byteLength":744,
			"byteOffset":84468,
			"target":34963
		},
		{
			"buffer":0,
			"byteLength":468,
			"byteOffset":85212,
			"target":34962
		},
		{
			"buffer":0,
			"byteLength":468,
			"byteOffset":85680,
			"target":34962
		},
		{
			"buffer":0,
			"byteLength":312,
			"byteOffset":86148,
			"target":34962
		},
		{
			"buffer":0,
			"byteLength":288,
			"byteOffset":86460,
			"target":34963
		}
	],
	"buffers":[
		{
			"byteLength":86748,
			"uri":"batbat.bin"
		}
	]
}
