{
	"asset":{
		"generator":"Khronos glTF Blender I/O v4.1.63",
		"version":"2.0"
	},
	"extensionsUsed":[
		"KHR_materials_transmission",
		"KHR_materials_ior"
	],
	"scene":0,
	"scenes":[
		{
			"name":"Scene",
			"nodes":[
				0,
				1,
				2
			]
		}
	],
	"nodes":[
		{
			"mesh":0,
			"name":"glas"
		},
		{
			"mesh":1,
			"name":"straw",
			"rotation":[
				-0.1382017433643341,
				0,
				0,
				0.9904041290283203
			],
			"translation":[
				-0.18480858206748962,
				0.1821916252374649,
				1.1630069017410278
			]
		},
		{
			"mesh":2,
			"name":"juice",
			"scale":[
				0.9900000095367432,
				0.9900000095367432,
				0.9900000095367432
			],
			"translation":[
				0.1856050342321396,
				0.0873742550611496,
				-0.6466645002365112
			]
		}
	],
	"materials":[
		{
			"doubleSided":true,
			"extensions":{
				"KHR_materials_transmission":{
					"transmissionFactor":1
				},
				"KHR_materials_ior":{
					"ior":1.3999998569488525
				}
			},
			"name":"Material.glass",
			"pbrMetallicRoughness":{
				"baseColorFactor":[
					0.800000011920929,
					0.800000011920929,
					0.800000011920929,
					1
				],
				"metallicFactor":0,
				"roughnessFactor":0
			}
		},
		{
			"doubleSided":true,
			"name":"Material.straw",
			"pbrMetallicRoughness":{
				"baseColorFactor":[
					0.800000011920929,
					0.800000011920929,
					0.800000011920929,
					1
				],
				"metallicFactor":0,
				"roughnessFactor":0.5
			}
		},
		{
			"doubleSided":true,
			"name":"Material.juice",
			"pbrMetallicRoughness":{}
		}
	],
	"meshes":[
		{
			"name":"Cylinder",
			"primitives":[
				{
					"attributes":{
						"POSITION":0,
						"NORMAL":1,
						"TEXCOORD_0":2
					},
					"indices":3,
					"material":0
				}
			]
		},
		{
			"name":"Cylinder.001",
			"primitives":[
				{
					"attributes":{
						"POSITION":4,
						"NORMAL":5,
						"TEXCOORD_0":6
					},
					"indices":7,
					"material":1
				}
			]
		},
		{
			"name":"Cylinder.003",
			"primitives":[
				{
					"attributes":{
						"POSITION":8,
						"NORMAL":9,
						"TEXCOORD_0":10
					},
					"indices":11,
					"material":2
				}
			]
		}
	],
	"accessors":[
		{
			"bufferView":0,
			"componentType":5126,
			"count":194,
			"max":[
				0.30000001192092896,
				1,
				0.30000001192092896
			],
			"min":[
				-0.30000001192092896,
				0.01499999687075615,
				-0.30000001192092896
			],
			"type":"VEC3"
		},
		{
			"bufferView":1,
			"componentType":5126,
			"count":194,
			"type":"VEC3"
		},
		{
			"bufferView":2,
			"componentType":5126,
			"count":194,
			"type":"VEC2"
		},
		{
			"bufferView":3,
			"componentType":5123,
			"count":756,
			"type":"SCALAR"
		},
		{
			"bufferView":4,
			"componentType":5126,
			"count":141,
			"max":[
				0.2963719666004181,
				1.2772480249404907,
				-0.9886053800582886
			],
			"min":[
				0.15390071272850037,
				0.20120084285736084,
				-1.4315574169158936
			],
			"type":"VEC3"
		},
		{
			"bufferView":5,
			"componentType":5126,
			"count":141,
			"type":"VEC3"
		},
		{
			"bufferView":6,
			"componentType":5126,
			"count":141,
			"type":"VEC2"
		},
		{
			"bufferView":7,
			"componentType":5123,
			"count":354,
			"type":"SCALAR"
		},
		{
			"bufferView":8,
			"componentType":5126,
			"count":128,
			"max":[
				0.06760678440332413,
				0.679617166519165,
				0.908312201499939
			],
			"min":[
				-0.44267043471336365,
				-0.0005378499627113342,
				0.3980349600315094
			],
			"type":"VEC3"
		},
		{
			"bufferView":9,
			"componentType":5126,
			"count":128,
			"type":"VEC3"
		},
		{
			"bufferView":10,
			"componentType":5126,
			"count":128,
			"type":"VEC2"
		},
		{
			"bufferView":11,
			"componentType":5123,
			"count":756,
			"type":"SCALAR"
		}
	],
	"bufferViews":[
		{
			"buffer":0,
			"byteLength":2328,
			"byteOffset":0,
			"target":34962
		},
		{
			"buffer":0,
			"byteLength":2328,
			"byteOffset":2328,
			"target":34962
		},
		{
			"buffer":0,
			"byteLength":1552,
			"byteOffset":4656,
			"target":34962
		},
		{
			"buffer":0,
			"byteLength":1512,
			"byteOffset":6208,
			"target":34963
		},
		{
			"buffer":0,
			"byteLength":1692,
			"byteOffset":7720,
			"target":34962
		},
		{
			"buffer":0,
			"byteLength":1692,
			"byteOffset":9412,
			"target":34962
		},
		{
			"buffer":0,
			"byteLength":1128,
			"byteOffset":11104,
			"target":34962
		},
		{
			"buffer":0,
			"byteLength":708,
			"byteOffset":12232,
			"target":34963
		},
		{
			"buffer":0,
			"byteLength":1536,
			"byteOffset":12940,
			"target":34962
		},
		{
			"buffer":0,
			"byteLength":1536,
			"byteOffset":14476,
			"target":34962
		},
		{
			"buffer":0,
			"byteLength":1024,
			"byteOffset":16012,
			"target":34962
		},
		{
			"buffer":0,
			"byteLength":1512,
			"byteOffset":17036,
			"target":34963
		}
	],
	"buffers":[
		{
			"byteLength":18548,
			"uri":"blood.bin"
		}
	]
}
